<svg version="1.1" id="Layer_1" xmlns="http://www.w3.org/2000/svg" xmlns:xlink="http://www.w3.org/1999/xlink" x="0px" y="0px"
	 width="100%" viewBox="0 0 2528 1686" enable-background="new 0 0 2528 1686" xml:space="preserve">
<path fill="none" opacity="1.000000" stroke="#000000" stroke-linecap="round" stroke-linejoin="round" stroke-width="3.000000"
	d="
M886.000000,652.000000 
	C885.524780,609.001099 885.550720,565.997375 885.248535,522.998230 
	C884.494202,415.670197 885.000000,308.333344 885.000000,201.000000 
	C885.000000,185.899872 876.097473,176.619720 860.999634,176.009094 
	C859.335693,175.941772 857.666687,176.000000 856.000000,176.000000 
	C660.000000,176.000000 463.999695,176.152039 268.000488,175.758987 
	C248.919876,175.720734 237.698898,186.918533 237.755630,206.000732 
	C238.197662,354.666077 238.000000,503.333344 238.000000,652.000000 
"/>
<path fill="none" opacity="1.000000" stroke="#000000" stroke-linecap="round" stroke-linejoin="round" stroke-width="2.000000"
	d="
M2291.000000,653.000000 
	C2291.000000,503.666656 2291.000000,354.333344 2291.000000,205.000000 
	C2291.000000,184.588974 2282.519287,176.016678 2262.000000,176.014206 
	C2064.666748,175.990479 1867.333374,175.992554 1670.000000,176.012466 
	C1651.889038,176.014297 1643.000000,184.984512 1643.000000,203.000000 
	C1643.000000,323.666656 1642.986938,444.333344 1643.067871,564.999939 
	C1643.070068,568.312927 1641.882568,571.845093 1644.000000,575.000000 
"/>
<path fill="none" opacity="1.000000" stroke="#000000" stroke-linecap="round" stroke-linejoin="round" stroke-width="2.000000"
	d="
M1590.000000,468.000000 
	C1588.313232,464.456360 1589.029053,460.677368 1589.027466,457.000000 
	C1588.991821,372.333344 1588.595947,287.663055 1589.351318,203.003128 
	C1589.497192,186.663467 1577.381470,175.766846 1561.999634,175.791260 
	C1363.333496,176.106659 1164.666626,175.992569 966.000000,176.012482 
	C947.863403,176.014297 939.004089,185.261078 939.003357,204.000000 
	C938.997314,353.666656 939.000000,503.333344 939.000000,653.000000 
"/>
<path fill="none" opacity="1.000000" stroke="#000000" stroke-linecap="round" stroke-linejoin="round" stroke-width="3.000000"
	d="
M1481.000000,979.000000 
	C1471.334351,975.327271 1461.273682,974.372314 1451.003906,973.912231 
	C1418.063232,972.436584 1385.788574,976.017456 1355.048218,988.122314 
	C1292.479980,1012.760437 1247.360596,1055.922363 1221.119873,1118.050659 
	C1212.789673,1137.773315 1208.443359,1158.588989 1205.615234,1179.949097 
	C1203.569824,1195.397827 1203.049072,1210.835205 1204.360596,1225.968750 
	C1207.655273,1263.982666 1219.093872,1299.849731 1240.117310,1331.923096 
	C1271.815552,1380.281982 1314.992065,1413.329224 1370.895142,1430.344482 
	C1400.305054,1439.295898 1430.204712,1443.055298 1459.942017,1439.513306 
	C1542.712280,1429.655029 1605.094971,1388.061646 1645.067749,1314.036621 
	C1658.145752,1289.817749 1666.223389,1263.868408 1669.687622,1236.959839 
	C1675.800537,1189.476440 1667.542480,1143.918945 1645.980225,1101.010010 
	C1621.381958,1052.059814 1582.507690,1017.864502 1533.897095,994.211426 
	C1525.771240,990.257385 1517.105347,986.732544 1508.000000,985.000000 
"/>
<path fill="none" opacity="1.000000" stroke="#000000" stroke-linecap="round" stroke-linejoin="round" stroke-width="3.000000"
	d="
M1981.000000,1308.000000 
	C1987.203369,1326.657837 1998.776489,1342.200073 2011.156006,1356.868408 
	C2036.240356,1386.590576 2067.049561,1409.141479 2103.084717,1423.791504 
	C2121.227051,1431.167236 2140.290527,1435.723145 2159.944580,1438.406738 
	C2172.401367,1440.107788 2184.662354,1439.653687 2197.001709,1439.920898 
	C2227.471191,1440.580322 2256.430908,1433.005737 2283.918945,1420.817383 
	C2336.466064,1397.517578 2375.884033,1359.914429 2400.895508,1307.949707 
	C2412.130859,1284.606934 2419.349121,1260.079590 2422.412109,1234.048462 
	C2424.190674,1218.932007 2424.923828,1203.832275 2423.653076,1189.029785 
	C2420.008789,1146.581299 2406.904541,1107.007080 2381.938721,1072.043823 
	C2356.403809,1036.284180 2323.127197,1009.523865 2282.873779,992.295044 
	C2263.284424,983.910583 2242.695068,978.160889 2221.036133,975.684875 
	C2180.668457,971.069885 2141.795898,974.994019 2103.927002,989.813660 
	C2100.096436,991.312866 2097.236328,994.586670 2093.000000,995.000000 
"/>
<path fill="none" opacity="1.000000" stroke="#000000" stroke-linecap="round" stroke-linejoin="round" stroke-width="3.000000"
	d="
M259.000000,926.000000 
	C232.329163,926.000000 205.658340,926.000000 178.500000,926.000000 
	C178.500000,955.333313 178.500000,983.666687 178.500000,1013.000000 
	C258.330536,1013.000000 337.665253,1013.000000 417.500000,1013.000000 
	C417.500000,936.333313 417.500000,859.666687 417.500000,782.500000 
	C337.666656,782.500000 258.333344,782.500000 178.500000,782.500000 
	C178.500000,830.661987 178.500000,878.330994 178.500000,926.000000 
	C158.333328,926.000000 138.666672,926.000000 119.000000,926.000000 
"/>
<path fill="none" opacity="1.000000" stroke="#000000" stroke-linecap="round" stroke-linejoin="round" stroke-width="3.000000"
	d="
M1189.000000,1013.000000 
	C1204.003418,1013.181702 1219.019775,1012.541809 1234.004517,1013.951416 
	C1238.031982,1014.330200 1240.052979,1012.057678 1240.002563,1007.999939 
	C1239.986084,1006.666870 1240.000000,1005.333313 1240.000000,1004.000000 
	C1240.000000,931.666687 1240.003418,859.333313 1239.973877,787.000000 
	C1239.973267,785.635620 1240.661133,784.001343 1238.138428,782.500000 
	C1159.000000,782.500000 1079.000000,782.500000 998.500000,782.500000 
	C998.500000,859.333313 998.500000,935.666687 998.500000,1012.113403 
	C1002.190918,1013.757507 1005.669556,1012.948792 1009.000061,1012.952942 
	C1062.666626,1013.019470 1116.333374,1012.998230 1170.000000,1013.002502 
	C1176.017456,1013.002930 1182.046265,1012.834167 1188.000000,1014.000000 
"/>
<path fill="none" opacity="1.000000" stroke="#000000" stroke-linecap="round" stroke-linejoin="round" stroke-width="3.000000"
	d="
M1249.000000,1040.000000 
	C1244.711060,1051.306396 1235.088013,1058.867310 1228.786499,1068.865479 
	C1210.622070,1097.686035 1197.788696,1128.184204 1191.660278,1161.938354 
	C1187.474609,1184.992310 1186.223145,1208.175537 1188.467773,1230.953857 
	C1193.310181,1280.091187 1211.535767,1324.315063 1242.875610,1363.100464 
	C1268.605103,1394.942505 1300.335938,1418.828857 1337.129272,1435.718384 
	C1358.182251,1445.382202 1380.684814,1451.138184 1403.956787,1454.316040 
	C1424.377563,1457.104492 1444.867554,1457.319214 1464.957153,1455.521484 
	C1500.631592,1452.329590 1534.112427,1440.518066 1564.998413,1421.997437 
	C1610.081421,1394.963867 1643.909058,1357.399170 1665.660889,1309.844849 
	C1677.268799,1284.467407 1684.110474,1257.444092 1686.588745,1229.051392 
	C1688.212646,1210.445923 1687.794189,1192.099487 1685.582886,1174.051147 
	C1681.582397,1141.397583 1671.356445,1110.340942 1654.007935,1081.995117 
	C1652.515625,1079.556885 1649.321777,1077.502930 1652.000000,1074.000000 
"/>
<path fill="none" opacity="1.000000" stroke="#000000" stroke-linecap="round" stroke-linejoin="round" stroke-width="3.000000"
	d="
M974.000000,783.000000 
	C971.822083,781.578796 969.364868,782.014709 967.000000,782.014160 
	C891.000000,781.996948 815.000000,781.996643 739.000000,782.026123 
	C737.635620,782.026611 736.001343,781.338806 734.837646,782.990967 
	C733.242493,786.190918 734.049622,789.669617 734.046631,793.000061 
	C733.984802,862.333313 734.000000,931.666687 734.000000,1001.000000 
	C734.000000,1012.917847 734.000854,1012.851685 745.999817,1013.011597 
	C794.997864,1013.664368 843.998718,1012.915100 893.005981,1013.498535 
	C919.612122,1013.815247 946.341919,1014.018616 974.000000,1012.667664 
	C974.000000,936.669556 974.000000,860.334778 974.000000,784.000000 
"/>
<path fill="none" opacity="1.000000" stroke="#000000" stroke-linecap="round" stroke-linejoin="round" stroke-width="3.000000"
	d="
M1605.000000,655.000000 
	C1596.737427,652.896606 1588.341309,654.017578 1580.000000,654.016846 
	C1352.000000,653.995850 1124.000000,654.000000 896.000000,654.000000 
	C681.000000,654.000000 466.000000,654.000000 251.000000,654.000000 
	C195.000000,654.000000 139.000000,654.000000 83.000000,654.000000 
	C79.633331,654.000000 76.266670,654.000000 72.500000,654.000000 
	C72.500000,660.333313 72.500000,665.666687 72.500000,672.000000 
	C97.657661,672.000000 122.342339,672.000000 148.000000,672.000000 
	C148.000000,699.991760 148.000000,726.995911 148.000000,754.000000 
"/>
<path fill="none" opacity="1.000000" stroke="#000000" stroke-linecap="round" stroke-linejoin="round" stroke-width="3.000000"
	d="
M2010.000000,755.000000 
	C2027.964600,757.242554 2046.001709,755.540955 2064.001221,755.946777 
	C2076.328125,756.224731 2088.666748,756.000000 2101.000000,756.000000 
	C2160.333252,756.000000 2219.667969,756.217041 2278.999512,755.904053 
	C2306.664551,755.758118 2334.365234,755.336975 2361.997314,755.485535 
	C2393.321533,755.653931 2424.669678,755.383545 2455.999268,756.040649 
	C2456.339600,756.047791 2456.666748,756.666565 2457.500000,757.499817 
	C2457.500000,765.000000 2457.500000,773.000000 2457.500000,782.000000 
	C2428.341064,782.000000 2399.658936,782.000000 2370.500000,782.000000 
	C2370.500000,859.333313 2370.500000,935.666687 2370.500000,1013.000000 
	C2395.324219,1013.000000 2419.662109,1013.005737 2444.000000,1012.997864 
	C2459.484619,1012.992798 2458.015869,1011.515442 2458.000488,1027.000000 
	C2457.997070,1030.366699 2458.000000,1033.733276 2458.000000,1038.000000 
	C2434.343018,1038.000000 2411.671631,1037.985596 2389.000000,1038.013550 
	C2384.980469,1038.018433 2380.908691,1037.571289 2377.000000,1039.000000 
"/>
<path fill="none" opacity="1.000000" stroke="#000000" stroke-linecap="round" stroke-linejoin="round" stroke-width="3.000000"
	d="
M886.000000,1040.000000 
	C886.000000,1052.666626 886.035278,1065.333496 885.991577,1078.000000 
	C885.929016,1096.130127 878.130066,1103.982788 860.000000,1103.987183 
	C751.000000,1104.013062 642.000000,1104.000000 533.000000,1104.000000 
	C482.000000,1104.000000 431.000000,1104.000000 380.000000,1104.000000 
"/>
<path fill="none" opacity="1.000000" stroke="#000000" stroke-linecap="round" stroke-linejoin="round" stroke-width="3.000000"
	d="
M1805.000000,1243.000000 
	C1782.202759,1217.113892 1759.382080,1191.251587 1736.804321,1165.169312 
	C1721.052612,1146.972290 1705.023193,1128.979492 1689.004150,1110.996338 
	C1680.514038,1101.465332 1673.022583,1090.718750 1663.712769,1082.318359 
	C1641.638550,1062.401001 1624.065308,1038.593628 1604.266724,1016.758179 
	C1590.480713,1001.553711 1578.354248,984.851562 1564.162964,969.845886 
	C1550.542236,955.443542 1538.266846,939.768799 1524.108765,923.135864 
	C1501.117432,1006.084106 1478.540283,1087.537720 1455.741699,1169.790039 
	C1465.259155,1178.096558 1472.562378,1187.779663 1472.171387,1202.004761 
	C1471.634644,1221.539062 1458.908081,1233.984253 1444.957031,1237.844604 
	C1419.034180,1245.017456 1397.807129,1228.686035 1394.129517,1201.982178 
	C1392.145386,1187.573730 1406.257568,1167.439453 1421.060059,1164.281372 
	C1430.801880,1162.203003 1433.997192,1157.457153 1436.355225,1148.089355 
	C1443.773560,1118.617676 1452.033203,1089.336060 1460.242676,1060.068115 
	C1467.713623,1033.432983 1474.778931,1006.689392 1482.294434,980.083191 
	C1490.495239,951.051392 1499.144531,922.121338 1506.796387,892.946594 
	C1512.827881,869.949341 1518.583496,846.783386 1521.489746,823.112061 
	C1515.330444,822.016113 1509.600708,821.279907 1504.011597,819.951233 
	C1483.920044,815.174927 1473.117188,828.403809 1464.347534,842.220581 
	C1456.265625,854.953979 1446.420654,860.374390 1432.007690,857.954285 
	C1419.741089,855.894714 1407.129272,858.516296 1394.654663,855.240784 
	C1392.789551,848.465942 1395.370239,845.869934 1402.000610,845.954773 
	C1414.331909,846.112671 1428.357544,849.723633 1438.582397,845.080505 
	C1452.109131,838.937988 1458.484985,822.832764 1465.603882,809.783936 
	C1472.389038,797.347168 1481.834717,795.566162 1494.003174,795.875488 
	C1512.657715,796.349670 1531.368042,796.691406 1549.987793,795.757690 
	C1562.456665,795.132507 1568.328003,804.709534 1576.989258,810.017578 
	C1582.302490,813.273865 1579.835327,818.605652 1579.894531,823.001404 
	C1580.143921,841.528076 1580.056641,840.790894 1598.981567,842.241028 
	C1613.332642,843.340698 1627.901123,843.317383 1642.000000,847.000000 
"/>
<path fill="none" opacity="1.000000" stroke="#000000" stroke-linecap="round" stroke-linejoin="round" stroke-width="3.000000"
	d="
M1117.000000,1367.000000 
	C1113.456421,1365.313232 1109.677246,1366.027710 1106.000000,1366.027100 
	C933.000000,1365.995972 760.000000,1366.000000 587.000000,1366.000000 
"/>
<path fill="none" opacity="1.000000" stroke="#000000" stroke-linecap="round" stroke-linejoin="round" stroke-width="3.000000"
	d="
M1486.000000,963.000000 
	C1461.712646,955.719116 1436.520264,956.156128 1412.048340,958.504028 
	C1365.722900,962.948669 1323.374023,979.542480 1285.915771,1007.888672 
	C1277.364014,1014.360229 1269.494263,1021.430359 1262.016602,1029.016357 
	C1255.932129,1035.189087 1250.097656,1041.710938 1239.984619,1038.042358 
	C1239.100952,1037.721802 1238.000000,1038.000000 1237.000000,1038.000000 
	C1145.000000,1038.000000 1053.000000,1038.000000 961.000000,1038.000000 
	C775.666687,1038.000000 590.333069,1037.839478 405.000183,1038.114014 
	C359.335999,1038.181641 313.645813,1038.621582 268.001343,1038.499878 
	C205.339081,1038.332886 142.665329,1038.570557 80.000595,1037.941040 
	C77.684441,1037.917847 75.088295,1039.048584 72.500000,1036.631470 
	C72.500000,1029.666626 72.500000,1022.333313 72.500000,1014.000000 
	C88.985985,1014.000000 104.992989,1014.000000 121.000000,1014.000000 
	C123.666664,1014.000000 126.357353,1013.769714 128.995316,1014.044861 
	C135.858429,1014.760681 138.217407,1011.858459 138.116989,1004.998291 
	C137.799927,983.336243 138.000000,961.666687 138.000000,940.000000 
	C138.000000,891.666687 138.003098,843.333313 137.994339,795.000000 
	C137.993607,790.975830 138.413986,786.909973 136.478256,782.000000 
	C115.677063,782.000000 94.322914,782.000000 72.500000,782.000000 
	C72.500000,773.000000 72.500000,765.000000 72.500000,756.886597 
	C76.190918,755.242493 79.669472,756.052002 83.000069,756.047241 
	C130.999969,755.978210 179.000000,756.000000 227.000000,756.000000 
	C289.000000,756.000000 351.000000,756.000000 413.000000,756.000000 
	C504.333344,756.000000 595.666687,756.000000 687.000000,756.000000 
	C749.666687,756.000000 812.333313,756.000000 875.000000,756.000000 
	C995.000000,756.000000 1115.000000,756.000000 1235.000000,756.000000 
	C1292.666626,756.000000 1350.333618,755.922607 1407.999634,756.102661 
	C1414.838501,756.123962 1419.761963,755.062561 1423.215698,748.107117 
	C1426.908081,740.671082 1433.703857,735.151428 1440.179565,730.236572 
	C1447.566650,724.630249 1456.600098,726.433105 1464.989258,729.034485 
	C1476.365723,732.562317 1487.891357,735.777832 1498.905518,740.233643 
	C1504.433960,742.470276 1507.331909,737.782410 1511.994019,737.691406 
	C1521.650269,737.502991 1531.284058,738.442139 1541.028198,737.225403 
	C1555.920776,735.365906 1571.037109,735.365417 1585.984497,733.847778 
	C1593.600708,733.074463 1596.662720,725.817017 1597.633667,719.939453 
	C1599.272095,710.022766 1600.655396,699.997681 1601.952637,689.993835 
	C1604.040771,673.890869 1605.101562,657.646729 1609.871948,641.961060 
	C1610.709595,639.206238 1610.344727,635.887634 1609.000000,633.000000 
"/>
<path fill="none" opacity="1.000000" stroke="#000000" stroke-linecap="round" stroke-linejoin="round" stroke-width="3.000000"
	d="
M1965.000000,1314.000000 
	C1981.183105,1349.020996 2004.695435,1378.058716 2034.906738,1402.117065 
	C2065.354248,1426.363403 2099.615723,1443.057373 2137.111572,1451.504517 
	C2165.474121,1457.893799 2194.705322,1457.939819 2224.037354,1454.301636 
	C2267.712158,1448.884644 2305.901123,1431.579590 2341.083496,1406.115356 
	C2345.538818,1402.890625 2350.640869,1399.407227 2353.555908,1395.655029 
	C2361.124268,1385.913086 2370.561768,1385.480835 2381.000977,1385.980713 
	C2383.661621,1386.108154 2386.333252,1386.000000 2389.000000,1386.000000 
"/>
<path fill="none" opacity="1.000000" stroke="#000000" stroke-linecap="round" stroke-linejoin="round" stroke-width="3.000000"
	d="
M698.000000,754.000000 
	C698.000000,726.995911 698.000000,699.991760 698.000000,672.500000 
	C612.333313,672.500000 527.666687,672.500000 442.000000,672.500000 
	C442.000000,699.991760 442.000000,726.995911 442.000000,754.000000 
"/>
<path fill="none" opacity="1.000000" stroke="#000000" stroke-linecap="round" stroke-linejoin="round" stroke-width="3.000000"
	d="
M1246.000000,754.000000 
	C1246.000000,726.995911 1246.000000,699.991760 1246.000000,672.500000 
	C1161.000000,672.500000 1077.000000,672.500000 992.000000,672.500000 
	C992.000000,699.991760 992.000000,726.995911 992.000000,754.000000 
"/>
<path fill="none" opacity="1.000000" stroke="#000000" stroke-linecap="round" stroke-linejoin="round" stroke-width="3.000000"
	d="
M2140.000000,782.000000 
	C2205.001709,782.000000 2270.003418,782.000000 2333.702393,782.000000 
	C2336.833496,784.366638 2335.958252,786.331482 2335.959473,788.000000 
	C2336.007080,856.666687 2336.002441,925.333313 2335.990723,994.000000 
	C2335.990234,996.699158 2336.404053,999.467163 2335.000000,1002.000000 
"/>
<path fill="none" opacity="1.000000" stroke="#000000" stroke-linecap="round" stroke-linejoin="round" stroke-width="3.000000"
	d="
M1520.000000,736.000000 
	C1520.000000,714.994690 1520.000000,693.989441 1520.000000,672.500000 
	C1435.000000,672.500000 1351.000000,672.500000 1266.000000,672.500000 
	C1266.000000,699.991760 1266.000000,726.995911 1266.000000,754.000000 
"/>
<path fill="none" opacity="1.000000" stroke="#000000" stroke-linecap="round" stroke-linejoin="round" stroke-width="3.000000"
	d="
M1667.000000,709.000000 
	C1693.101074,714.745056 1719.721191,717.325867 1746.044189,721.736023 
	C1756.674927,723.517090 1767.589355,723.496887 1778.038330,726.881653 
	C1780.974487,727.832764 1784.098877,726.578735 1787.026855,725.051575 
	C1836.977295,698.997192 1890.382324,681.491638 1942.922974,661.794434 
	C1956.044189,656.875244 1969.455078,652.442627 1982.790771,646.313477 
	C1974.989746,628.606201 1961.669312,617.379700 1946.056396,607.906982 
	C1913.907227,588.401611 1878.242310,579.729980 1842.047119,571.785583 
	C1805.053833,563.666077 1767.662109,558.805969 1729.995850,558.486267 
	C1706.744629,558.288940 1683.046143,559.253540 1660.884399,569.756104 
	C1644.733887,577.409912 1630.745361,586.835144 1620.946899,601.965576 
	C1620.349976,602.887146 1619.619507,604.262634 1618.000000,604.000000 
"/>
<path fill="none" opacity="1.000000" stroke="#000000" stroke-linecap="round" stroke-linejoin="round" stroke-width="3.000000"
	d="
M1988.000000,655.000000 
	C1990.871338,653.508484 1993.974976,654.013794 1997.000000,654.013489 
	C2146.666748,653.998047 2296.333252,653.993469 2446.000000,654.060608 
	C2448.311768,654.061646 2450.911621,652.951416 2453.500000,655.368530 
	C2453.500000,660.333313 2453.500000,665.666687 2453.500000,672.000000 
	C2423.674316,672.000000 2394.325684,672.000000 2364.000000,672.000000 
	C2364.000000,696.323792 2364.028076,719.661987 2363.970703,742.999939 
	C2363.961670,746.677673 2364.686768,750.456360 2363.000000,754.000000 
"/>
<path fill="none" opacity="1.000000" stroke="#000000" stroke-linecap="round" stroke-linejoin="round" stroke-width="3.000000"
	d="
M2087.000000,981.000000 
	C2100.807373,971.203979 2117.265625,968.555664 2133.007568,964.026001 
	C2159.569336,956.382874 2187.060547,955.939087 2213.957520,958.454895 
	C2267.596924,963.472168 2315.544189,983.624756 2355.987793,1020.013672 
	C2384.934326,1046.058350 2407.918701,1076.305786 2422.089844,1112.965210 
	C2430.103760,1133.696411 2435.576904,1154.811646 2438.182861,1176.978516 
	C2445.558594,1239.720703 2431.141602,1296.819946 2396.015381,1349.010376 
	C2387.373779,1361.849731 2375.923828,1372.401611 2367.000000,1385.000000 
"/>
<path fill="none" opacity="1.000000" stroke="#000000" stroke-linecap="round" stroke-linejoin="round" stroke-width="3.000000"
	d="
M424.000000,754.000000 
	C424.000000,730.333313 424.017578,706.666687 423.992126,683.000000 
	C423.980377,672.057617 423.940887,671.915833 413.000244,672.023682 
	C354.668060,672.598755 296.336365,671.446777 237.991989,672.591980 
	C218.741867,672.969910 199.329834,672.552063 179.999344,672.023926 
	C176.312943,671.923218 172.572495,671.630798 168.000000,673.459229 
	C168.000000,699.991760 168.000000,726.995911 168.000000,754.000000 
"/>
<path fill="none" opacity="1.000000" stroke="#000000" stroke-linecap="round" stroke-linejoin="round" stroke-width="3.000000"
	d="
M1555.000000,778.000000 
	C1543.666626,772.596375 1531.879028,776.237000 1521.198730,778.821350 
	C1516.137573,780.046082 1511.646973,779.276306 1506.983398,779.869080 
	C1489.691772,782.067139 1472.255127,781.953918 1455.031860,779.751099 
	C1445.936035,778.587769 1437.831543,782.254089 1428.998535,782.184204 
	C1380.334961,781.798828 1331.666626,781.985413 1283.000000,782.029236 
	C1279.323486,782.032593 1275.545166,781.329956 1271.600464,783.142395 
	C1270.242432,786.190918 1271.094238,789.665588 1271.040894,793.000671 
	C1270.304321,838.997192 1270.682739,885.007141 1270.512817,931.001892 
	C1270.418213,956.603577 1269.316895,982.384094 1271.966797,1008.003418 
	C1272.224731,1010.498779 1271.584229,1013.166382 1274.000000,1015.000000 
"/>
<path fill="none" opacity="1.000000" stroke="#000000" stroke-linecap="round" stroke-linejoin="round" stroke-width="4.000000"
	d="
M381.000000,1344.000000 
	C377.456360,1342.313232 373.677368,1343.029419 370.000000,1343.027710 
	C293.000000,1342.991089 216.000000,1343.000000 139.000000,1343.000000 
"/>
<path fill="none" opacity="1.000000" stroke="#000000" stroke-linecap="round" stroke-linejoin="round" stroke-width="3.000000"
	d="
M2078.000000,1003.000000 
	C2046.273193,1019.097656 2020.431274,1041.910278 1999.973755,1070.981567 
	C1984.644775,1092.764648 1972.903809,1116.091919 1965.816040,1141.949585 
	C1960.042358,1163.013672 1956.237793,1184.137573 1957.000000,1206.000000 
"/>
<path fill="none" opacity="1.000000" stroke="#000000" stroke-linecap="round" stroke-linejoin="round" stroke-width="3.000000"
	d="
M2344.000000,754.000000 
	C2344.000000,726.995911 2344.000000,699.991760 2344.000000,672.500000 
	C2259.000000,672.500000 2175.000000,672.500000 2090.868408,672.500000 
	C2088.845703,679.517883 2088.966797,686.267151 2089.006836,692.999939 
	C2089.117920,711.674988 2088.916748,730.342834 2088.054688,749.002502 
	C2087.978271,750.650269 2088.666748,752.333313 2089.000000,754.000000 
"/>
<path fill="none" opacity="1.000000" stroke="#000000" stroke-linecap="round" stroke-linejoin="round" stroke-width="3.000000"
	d="
M282.000000,1068.000000 
	C282.000000,1144.666626 282.000000,1221.333374 282.000000,1298.000000 
"/>
<path fill="none" opacity="1.000000" stroke="#000000" stroke-linecap="round" stroke-linejoin="round" stroke-width="3.000000"
	d="
M378.000000,1068.000000 
	C378.000000,1144.666626 378.000000,1221.333374 378.000000,1298.000000 
"/>
<path fill="none" opacity="1.000000" stroke="#000000" stroke-linecap="round" stroke-linejoin="round" stroke-width="3.000000"
	d="
M964.000000,1068.000000 
	C964.000000,1144.666626 964.000000,1221.333374 964.000000,1298.000000 
"/>
<path fill="none" opacity="1.000000" stroke="#000000" stroke-linecap="round" stroke-linejoin="round" stroke-width="3.000000"
	d="
M1060.000000,1068.000000 
	C1060.000000,1144.666626 1060.000000,1221.333374 1060.000000,1298.000000 
"/>
<path fill="none" opacity="1.000000" stroke="#000000" stroke-linecap="round" stroke-linejoin="round" stroke-width="4.000000"
	d="
M1338.000000,1049.000000 
	C1335.072144,1057.919434 1325.915527,1060.539307 1319.697632,1065.630737 
	C1285.531860,1093.607300 1265.059326,1129.166626 1255.899658,1171.978516 
	C1251.552612,1192.296875 1251.821899,1212.573364 1254.000000,1233.000000 
"/>
<path fill="none" opacity="1.000000" stroke="#000000" stroke-linecap="round" stroke-linejoin="round" stroke-width="3.000000"
	d="
M2163.000000,1234.000000 
	C2143.781494,1241.988525 2123.644531,1247.272827 2103.959961,1253.880737 
	C2074.781494,1263.675293 2045.283813,1272.514404 2016.012451,1282.038574 
	C1979.626831,1293.877563 1943.337158,1306.011475 1906.975464,1317.924927 
	C1906.171021,1318.188599 1905.000000,1317.333374 1904.000000,1317.000000 
"/>
<path fill="none" opacity="1.000000" stroke="#000000" stroke-linecap="round" stroke-linejoin="round" stroke-width="3.000000"
	d="
M972.000000,754.000000 
	C972.000000,726.995911 972.000000,699.991760 972.000000,672.000000 
	C954.680298,672.000000 938.340149,672.000000 922.000000,672.000000 
	C867.333313,672.000000 812.666687,672.000000 758.000000,672.000000 
	C747.333313,672.000000 736.642639,672.435852 726.008362,671.848572 
	C718.772949,671.448975 716.602600,674.222595 716.934875,681.003174 
	C718.127014,705.328369 716.919495,729.666687 717.000000,754.000000 
"/>
<path fill="none" opacity="1.000000" stroke="#000000" stroke-linecap="round" stroke-linejoin="round" stroke-width="3.000000"
	d="
M2032.000000,909.000000 
	C2035.656006,914.480957 2029.150024,916.346497 2027.711060,919.882385 
	C2015.222412,950.570740 2000.723022,980.389709 1987.543213,1010.802063 
	C1977.484009,1034.013794 1966.482910,1056.912964 1955.940796,1079.972900 
	C1938.827637,1117.406982 1921.227173,1154.618164 1904.145020,1192.066162 
	C1902.181519,1196.370483 1900.886597,1201.432251 1900.315063,1206.039062 
	C1899.360718,1213.731445 1895.842529,1218.328979 1889.000000,1221.000000 
"/>
<path fill="none" opacity="1.000000" stroke="#000000" stroke-linecap="round" stroke-linejoin="round" stroke-width="4.000000"
	d="
M2342.000000,1095.000000 
	C2295.223145,1035.160034 2234.505127,1009.795593 2159.000000,1021.000000 
"/>
<path fill="none" opacity="1.000000" stroke="#000000" stroke-linecap="round" stroke-linejoin="round" stroke-width="3.000000"
	d="
M2070.000000,989.000000 
	C2062.828125,989.656372 2057.503662,994.596802 2052.173340,998.252563 
	C2011.757080,1025.970825 1980.226440,1061.497925 1961.117065,1107.049072 
	C1952.923584,1126.579590 1945.812866,1146.557861 1943.933594,1167.994141 
	C1942.765381,1181.319458 1938.245483,1194.385132 1941.000000,1208.000000 
"/>
<path fill="none" opacity="1.000000" stroke="#000000" stroke-linecap="round" stroke-linejoin="round" stroke-width="3.000000"
	d="
M2159.000000,1165.000000 
	C2129.664062,1172.882690 2099.633301,1177.506836 2069.975098,1183.884277 
	C2029.074341,1192.679199 1988.003906,1200.685791 1946.997925,1208.989502 
	C1932.963257,1211.831543 1918.777466,1213.940430 1904.963745,1217.872559 
	C1903.905884,1218.173828 1902.333374,1216.666748 1901.000000,1216.000000 
"/>
<path fill="none" opacity="1.000000" stroke="#000000" stroke-linecap="round" stroke-linejoin="round" stroke-width="3.000000"
	d="
M2056.000000,860.000000 
	C2049.851074,869.308289 2046.752930,880.051941 2041.793457,889.895935 
	C2040.440796,892.581116 2040.275513,893.413391 2041.796997,896.114380 
	C2045.735596,903.106750 2048.216309,910.913208 2052.073242,917.959900 
	C2076.707764,962.966980 2098.891846,1009.217896 2122.023926,1054.987915 
	C2138.901611,1088.383057 2156.160156,1121.586792 2172.844238,1155.077515 
	C2175.673584,1160.756958 2179.000977,1162.264282 2185.002930,1162.147705 
	C2204.377197,1161.771729 2220.208008,1174.600220 2224.000000,1193.000000 
	C2227.812256,1211.499878 2217.542480,1229.723633 2198.991943,1236.979248 
	C2171.526855,1247.721680 2147.073242,1223.617432 2147.689941,1201.991211 
	C2148.083496,1188.191772 2151.626953,1177.103149 2163.225830,1169.396729 
	C2140.013672,1123.326416 2116.993652,1077.669800 2094.007080,1031.996338 
	C2085.630371,1015.351685 2077.899170,998.352356 2068.862305,982.076416 
	C2056.471680,959.760132 2046.821167,936.072388 2034.000000,914.000000 
"/>
<path fill="none" opacity="1.000000" stroke="#000000" stroke-linecap="round" stroke-linejoin="round" stroke-width="3.000000"
	d="
M359.000000,905.000000 
	C355.456360,903.313293 351.677429,904.030945 347.999969,904.028015 
	C296.333344,903.986816 244.666672,904.000000 193.000000,904.000000 
"/>
<path fill="none" opacity="1.000000" stroke="#000000" stroke-linecap="round" stroke-linejoin="round" stroke-width="3.000000"
	d="
M1169.000000,557.000000 
	C1172.543579,558.686707 1176.322632,557.969055 1180.000000,557.972046 
	C1231.000000,558.013428 1282.000000,558.000000 1333.000000,558.000000 
"/>
<path fill="none" opacity="1.000000" stroke="#000000" stroke-linecap="round" stroke-linejoin="round" stroke-width="3.000000"
	d="
M2069.000000,754.000000 
	C2071.213379,740.044739 2069.593018,725.998474 2069.946533,711.998657 
	C2070.215820,701.338745 2069.948242,690.666321 2070.025635,680.000183 
	C2070.056641,675.693542 2069.684814,671.856079 2064.000244,672.008179 
	C2042.670288,672.578613 2021.303833,670.775330 2000.000000,673.000000 
"/>
<path fill="none" opacity="1.000000" stroke="#000000" stroke-linecap="round" stroke-linejoin="round" stroke-width="3.000000"
	d="
M2150.000000,1181.000000 
	C2138.242188,1179.780518 2127.155029,1184.153809 2116.105225,1186.496826 
	C2094.429199,1191.092896 2072.619141,1195.099731 2050.977295,1199.897217 
	C2020.408203,1206.673950 1989.536011,1212.008911 1958.974365,1218.885986 
	C1942.785645,1222.529053 1926.357422,1225.140747 1909.988647,1227.933716 
	C1903.026611,1229.121704 1896.670166,1234.691406 1889.000000,1231.000000 
"/>
<path fill="none" opacity="1.000000" stroke="#000000" stroke-linecap="round" stroke-linejoin="round" stroke-width="3.000000"
	d="
M2094.000000,828.000000 
	C2094.000000,873.000000 2093.992188,918.000000 2094.012695,963.000000 
	C2094.014648,967.019531 2093.571289,971.091309 2095.000000,975.000000 
"/>
<path fill="none" opacity="1.000000" stroke="#000000" stroke-linecap="round" stroke-linejoin="round" stroke-width="3.000000"
	d="
M1779.000000,728.000000 
	C1765.009155,738.955139 1749.199341,747.001465 1733.939453,755.896179 
	C1727.037476,759.919189 1721.062866,765.107117 1715.139526,770.163513 
	C1695.920898,786.569153 1674.094238,800.023010 1658.002686,820.002136 
	C1649.920532,830.036682 1643.031738,840.605835 1641.965088,853.997192 
	C1641.318359,862.119019 1643.564941,869.192383 1647.929321,876.044983 
	C1661.525391,897.391907 1678.033325,916.380981 1695.025269,934.976929 
	C1718.257568,960.402527 1741.483276,985.839050 1765.069092,1010.935059 
	C1779.109131,1025.874268 1794.549438,1039.470703 1807.801025,1056.227661 
	C1826.317749,1045.217285 1844.158936,1034.608643 1862.000000,1024.000000 
"/>
<path fill="none" opacity="1.000000" stroke="#000000" stroke-linecap="round" stroke-linejoin="round" stroke-width="3.000000"
	d="
M1207.000000,1105.000000 
	C1203.845093,1102.882568 1200.313721,1104.077393 1196.999878,1104.069824 
	C1152.000122,1103.965820 1107.000000,1104.000000 1062.000000,1104.000000 
"/>
<path fill="none" opacity="1.000000" stroke="#000000" stroke-linecap="round" stroke-linejoin="round" stroke-width="3.000000"
	d="
M1949.000000,798.000000 
	C1958.621582,802.784180 1969.045166,799.421875 1979.053711,800.502747 
	C1987.271118,801.390198 1995.201416,802.829529 2002.972900,805.093262 
	C2026.123901,811.836731 2048.788086,820.700073 2073.016846,822.806519 
	C2083.933350,823.755615 2094.493896,826.639465 2106.096191,824.529114 
	C2118.739014,822.229553 2133.838623,810.759460 2137.830811,791.964050 
	C2140.824951,777.868286 2128.568359,766.982117 2111.009033,765.860474 
	C2100.269287,765.174377 2089.824219,767.037903 2080.125488,770.365479 
	C2068.860107,774.230530 2057.743164,776.385193 2046.000488,775.986694 
	C2031.003662,775.477722 2016.016846,776.073486 2000.984619,775.298706 
	C1983.772095,774.411560 1969.168091,783.852295 1955.196777,792.324463 
	C1943.557373,799.382568 1930.804688,803.565186 1918.866943,809.742920 
	C1891.889160,823.703796 1863.037598,833.163757 1834.030273,842.098450 
	C1820.541870,846.253174 1806.930298,849.892761 1793.799072,855.532043 
	C1785.654419,859.029785 1775.652588,858.411926 1766.980835,861.953186 
	C1766.123779,862.303223 1764.900513,861.723694 1764.015259,862.042297 
	C1754.306763,865.536438 1751.103271,874.382263 1758.158569,881.850220 
	C1774.662109,899.319153 1791.647217,916.374268 1809.135620,932.856079 
	C1819.222046,942.362183 1827.027954,953.423950 1833.853516,965.085754 
	C1854.812866,1000.896545 1871.127930,1039.104126 1890.063965,1075.967163 
	C1892.794800,1081.283447 1893.972656,1088.384277 1902.000000,1089.000000 
"/>
<path fill="none" opacity="1.000000" stroke="#000000" stroke-linecap="round" stroke-linejoin="round" stroke-width="3.000000"
	d="
M2219.000000,574.000000 
	C2172.333252,574.000000 2125.666748,574.000000 2079.000000,574.000000 
"/>
<path fill="none" opacity="1.000000" stroke="#000000" stroke-linecap="round" stroke-linejoin="round" stroke-width="3.000000"
	d="
M1093.000000,581.000000 
	C1096.543579,582.686707 1100.322510,581.968079 1104.000000,581.971863 
	C1147.000000,582.015869 1190.000000,582.000000 1233.000000,582.000000 
"/>
<path fill="none" opacity="1.000000" stroke="#000000" stroke-linecap="round" stroke-linejoin="round" stroke-width="3.000000"
	d="
M1908.000000,1147.000000 
	C1911.676392,1150.734253 1910.356079,1153.791748 1907.036499,1157.037354 
	C1897.599243,1166.264282 1888.424561,1175.760498 1878.958984,1184.957764 
	C1874.631592,1189.162598 1872.805420,1193.911621 1871.765015,1199.959595 
	C1868.430908,1219.340332 1862.158325,1238.041870 1856.990356,1256.997314 
	C1854.714111,1265.346191 1852.235718,1273.640869 1850.028931,1282.007690 
	C1848.026245,1289.601074 1850.403076,1295.408447 1856.009033,1295.896606 
	C1862.792480,1296.487305 1864.774048,1291.149292 1865.929688,1285.984253 
	C1869.323486,1270.814087 1873.556519,1255.886230 1877.849365,1240.956665 
	C1878.915649,1237.248535 1879.248657,1235.020264 1883.897827,1233.652588 
	C1889.953369,1231.870728 1889.637695,1223.771729 1882.998047,1219.329590 
	C1883.461792,1224.353149 1877.423340,1227.859985 1882.000000,1233.000000 
"/>
<path fill="none" opacity="1.000000" stroke="#000000" stroke-linecap="round" stroke-linejoin="round" stroke-width="3.000000"
	d="
M2317.000000,554.000000 
	C2263.000000,554.000000 2209.000000,554.000000 2155.000000,554.000000 
"/>
<path fill="none" opacity="1.000000" stroke="#000000" stroke-linecap="round" stroke-linejoin="round" stroke-width="3.000000"
	d="
M2049.000000,820.000000 
	C2042.106201,836.046448 2033.379395,851.260986 2027.890381,867.963989 
	C2024.897583,877.071106 2019.565308,879.915771 2010.016113,877.922607 
	C1990.202759,873.787231 1969.904907,873.228455 1949.947021,871.685791 
	C1924.665161,869.731567 1899.394409,866.976135 1874.017456,865.662781 
	C1852.002686,864.523560 1830.148071,860.286560 1807.999268,860.080444 
	C1803.664307,860.040039 1800.590210,857.543579 1797.000000,856.000000 
"/>
<path fill="none" opacity="1.000000" stroke="#000000" stroke-linecap="round" stroke-linejoin="round" stroke-width="3.000000"
	d="
M1789.000000,1037.000000 
	C1785.427246,1038.366699 1781.690063,1037.988281 1778.000000,1037.989990 
	C1742.000000,1038.006592 1706.000000,1037.985840 1670.000000,1038.023315 
	C1666.651123,1038.026855 1663.206421,1037.397461 1660.000000,1039.000000 
"/>
<path fill="none" opacity="1.000000" stroke="#000000" stroke-linecap="round" stroke-linejoin="round" stroke-width="3.000000"
	d="
M1765.000000,1012.000000 
	C1761.793579,1013.602539 1758.350586,1012.925781 1754.999756,1012.984009 
	C1716.002808,1013.661377 1676.984863,1011.892273 1638.000000,1014.000916 
	C1633.948242,1014.220032 1631.415405,1011.650635 1629.012939,1008.988281 
	C1617.941406,996.719177 1607.276367,984.091736 1596.235962,971.788330 
	C1583.623291,957.732910 1571.783081,942.911499 1558.856201,929.134949 
	C1548.833984,918.454102 1540.598145,908.376831 1543.550293,891.919312 
	C1545.077515,883.404785 1546.196777,873.738525 1542.000000,865.000000 
"/>
<path fill="none" opacity="1.000000" stroke="#000000" stroke-linecap="round" stroke-linejoin="round" stroke-width="3.000000"
	d="
M1717.000000,1106.000000 
	C1718.489624,1114.674316 1726.300781,1119.010010 1731.350708,1124.688110 
	C1757.713745,1154.329712 1783.425049,1184.548096 1810.018188,1213.983643 
	C1814.601807,1219.057251 1817.531494,1225.681641 1823.775879,1229.060669 
	C1837.200806,1225.683960 1850.431885,1222.970459 1864.000000,1227.000000 
"/>
<path fill="none" opacity="1.000000" stroke="#000000" stroke-linecap="round" stroke-linejoin="round" stroke-width="3.000000"
	d="
M1823.000000,1230.000000 
	C1809.143677,1238.966309 1796.611450,1249.711792 1792.229126,1266.061401 
	C1783.684082,1297.942017 1795.290894,1327.560547 1828.980103,1342.046143 
	C1848.914795,1350.617554 1868.224487,1345.829712 1884.627075,1335.412842 
	C1899.608643,1325.898438 1908.502930,1309.781128 1909.986938,1290.999023 
	C1910.896362,1279.488403 1910.392578,1267.543335 1903.641602,1258.260620 
	C1897.570068,1249.912109 1896.796265,1242.107422 1899.000000,1233.000000 
"/>
<path fill="none" opacity="1.000000" stroke="#000000" stroke-linecap="round" stroke-linejoin="round" stroke-width="3.000000"
	d="
M1902.000000,1013.000000 
	C1918.333374,1013.000000 1934.690674,1012.477051 1950.989624,1013.226013 
	C1958.852539,1013.587280 1963.391846,1010.540649 1965.938354,1003.976074 
	C1975.829102,978.480103 1988.368652,954.163879 1999.057861,929.024597 
	C2003.200317,919.282227 2007.992310,909.816101 2012.915771,899.312622 
	C2005.780273,898.125732 1999.378174,896.101929 1993.002197,896.181030 
	C1974.236084,896.413635 1955.470581,894.299500 1937.081909,892.260742 
	C1909.748779,889.230164 1882.265991,887.737732 1854.949341,884.416260 
	C1837.445190,882.287842 1819.653198,881.513000 1801.986450,880.178894 
	C1787.333496,879.072266 1772.756104,876.688171 1758.000000,877.000000 
"/>
<path fill="none" opacity="1.000000" stroke="#000000" stroke-linecap="round" stroke-linejoin="round" stroke-width="3.000000"
	d="
M2178.000000,1242.000000 
	C2146.248779,1254.431274 2113.334961,1263.338501 2080.995117,1273.984985 
	C2048.655029,1284.631104 2016.179688,1294.848633 1983.942383,1305.830811 
	C1954.213013,1315.958618 1924.006348,1324.687500 1893.981323,1333.939575 
	C1892.459351,1334.408813 1890.666626,1334.000000 1889.000000,1334.000000 
"/>
<path fill="none" opacity="1.000000" stroke="#000000" stroke-linecap="round" stroke-linejoin="round" stroke-width="3.000000"
	d="
M1602.000000,672.000000 
	C1581.661255,672.000000 1561.322388,672.000000 1540.000000,672.000000 
	C1540.000000,693.989441 1540.000000,714.994690 1540.000000,736.000000 
"/>
<path fill="none" opacity="1.000000" stroke="#000000" stroke-linecap="round" stroke-linejoin="round" stroke-width="3.000000"
	d="
M1641.000000,865.000000 
	C1628.567505,868.334839 1616.330566,863.796265 1604.021851,863.369019 
	C1591.801880,862.944885 1579.287720,861.785950 1566.990356,860.069031 
	C1563.720703,859.612549 1560.275513,860.400757 1557.010132,859.929749 
	C1543.757446,858.018066 1538.713135,860.933838 1536.309692,874.056702 
	C1535.741333,877.160217 1534.757812,880.369995 1533.693848,882.869690 
	C1529.697510,892.258667 1531.106445,899.687012 1539.000000,906.000000 
"/>
<path fill="none" opacity="1.000000" stroke="#000000" stroke-linecap="round" stroke-linejoin="round" stroke-width="3.000000"
	d="
M1498.000000,512.000000 
	C1476.788452,525.127258 1467.312988,559.887512 1478.960327,583.019958 
	C1483.655518,592.344971 1488.472900,601.486206 1496.916504,608.658081 
	C1507.085571,602.401794 1509.180786,590.411255 1517.400635,583.859802 
	C1516.151611,577.386292 1510.697388,575.291748 1507.823608,571.121582 
	C1491.775391,547.833069 1495.559082,531.534302 1513.049316,511.042053 
	C1516.710205,506.752625 1520.861206,502.845642 1525.060181,499.066833 
	C1527.082031,497.247314 1527.133789,495.266815 1527.000000,493.000000 
"/>
<path fill="none" opacity="1.000000" stroke="#000000" stroke-linecap="round" stroke-linejoin="round" stroke-width="3.000000"
	d="
M2071.000000,824.000000 
	C2069.666748,827.000000 2068.268066,829.972961 2067.011719,833.004822 
	C2062.503418,843.884216 2057.720215,853.988281 2059.460938,867.071716 
	C2061.683594,883.776001 2060.000977,901.000000 2059.998535,918.000000 
	C2059.998047,920.521057 2060.415771,923.166382 2058.000000,925.000000 
"/>
<path fill="none" opacity="1.000000" stroke="#000000" stroke-linecap="round" stroke-linejoin="round" stroke-width="3.000000"
	d="
M1816.000000,919.000000 
	C1849.000000,928.333313 1882.000000,937.666626 1915.000000,947.000000 
"/>
<path fill="none" opacity="1.000000" stroke="#000000" stroke-linecap="round" stroke-linejoin="round" stroke-width="3.000000"
	d="
M1867.000000,1416.000000 
	C1868.345215,1422.542847 1866.294067,1425.347168 1859.025269,1426.212036 
	C1837.395630,1428.785156 1815.520386,1428.300537 1793.987915,1431.928589 
	C1785.851807,1433.299438 1783.104004,1429.051880 1785.000000,1419.000000 
"/>
<path fill="none" opacity="1.000000" stroke="#000000" stroke-linecap="round" stroke-linejoin="round" stroke-width="3.000000"
	d="
M1511.000000,589.000000 
	C1494.810059,577.402893 1480.536133,541.042480 1497.000000,521.000000 
	C1497.715698,508.397217 1506.848145,500.971771 1516.195435,496.399567 
	C1536.347290,486.542358 1554.431641,471.981781 1578.985962,471.403290 
	C1591.573120,471.106781 1604.331299,470.626709 1617.000610,470.013519 
	C1618.995972,469.916962 1621.069214,469.662781 1622.988281,470.056824 
	C1632.647705,472.040405 1634.877197,476.981567 1628.898193,484.923309 
	C1620.637451,495.895599 1611.676025,506.340942 1602.996826,516.997437 
	C1596.511597,524.960266 1596.727417,524.658081 1604.937256,531.080200 
	C1613.532959,537.804138 1619.212402,546.132507 1618.101807,558.009521 
	C1617.101318,568.707642 1619.607056,580.083313 1611.000000,589.000000 
"/>
<path fill="none" opacity="1.000000" stroke="#000000" stroke-linecap="round" stroke-linejoin="round" stroke-width="3.000000"
	d="
M1812.000000,1104.000000 
	C1779.996582,1104.000000 1747.993042,1104.000000 1713.983765,1104.000000 
	C1699.499268,1090.044922 1685.997437,1072.335327 1671.029541,1055.973022 
	C1662.585449,1046.742188 1655.128662,1036.633301 1646.030273,1027.968262 
	C1642.172119,1024.293945 1637.777344,1020.872070 1637.000000,1015.000000 
"/>
<path fill="none" opacity="1.000000" stroke="#000000" stroke-linecap="round" stroke-linejoin="round" stroke-width="3.000000"
	d="
M1074.000000,1040.000000 
	C1074.000000,1048.346680 1074.000000,1056.693359 1074.000000,1066.000000 
	C1032.333374,1066.000000 991.666687,1066.000000 950.000000,1066.000000 
	C950.000000,1056.693359 950.000000,1048.346680 950.000000,1040.000000 
"/>
<path fill="none" opacity="1.000000" stroke="#000000" stroke-linecap="round" stroke-linejoin="round" stroke-width="3.000000"
	d="
M393.000000,1040.000000 
	C390.417877,1048.180054 393.363647,1056.802368 391.143707,1066.000000 
	C381.356262,1066.000000 371.678131,1066.000000 362.000000,1066.000000 
	C334.000000,1066.000000 305.994446,1065.686646 278.003265,1066.183350 
	C269.151733,1066.340332 267.312317,1062.535156 267.923767,1054.993774 
	C268.326569,1050.026489 268.000000,1045.000000 268.000000,1040.000000 
"/>
<path fill="none" opacity="1.000000" stroke="#000000" stroke-linecap="round" stroke-linejoin="round" stroke-width="3.000000"
	d="
M268.000000,1323.000000 
	C268.000000,1315.651489 268.000000,1308.302979 268.000000,1300.049805 
	C309.666656,1299.765381 350.333344,1297.648560 391.074341,1300.307739 
	C393.243683,1308.868530 393.020203,1316.942749 393.000000,1325.000000 
"/>
<path fill="none" opacity="1.000000" stroke="#000000" stroke-linecap="round" stroke-linejoin="round" stroke-width="3.000000"
	d="
M238.000000,1040.000000 
	C238.000000,1053.333374 237.917648,1066.667236 238.021652,1079.999878 
	C238.141037,1095.301880 246.698425,1103.810181 262.000122,1103.988647 
	C267.999329,1104.058594 274.000000,1104.000000 280.000000,1104.000000 
"/>
<path fill="none" opacity="1.000000" stroke="#000000" stroke-linecap="round" stroke-linejoin="round" stroke-width="3.000000"
	d="
M1429.000000,739.000000 
	C1419.000000,732.333374 1408.878784,725.839172 1399.048950,718.930420 
	C1393.791016,715.234924 1388.618408,714.414307 1385.215576,720.128418 
	C1382.336426,724.963440 1383.541748,728.900085 1389.822876,732.324768 
	C1399.819458,737.775208 1408.666626,745.333313 1418.000000,752.000000 
"/>
<path fill="none" opacity="1.000000" stroke="#000000" stroke-linecap="round" stroke-linejoin="round" stroke-width="3.000000"
	d="
M1884.000000,1338.000000 
	C1880.168823,1356.546143 1893.468872,1370.915161 1896.461670,1387.918701 
	C1897.824463,1395.661865 1900.360840,1403.025391 1899.910156,1410.820068 
	C1878.782227,1415.190063 1858.312012,1411.681274 1838.000000,1413.000000 
"/>
<path fill="none" opacity="1.000000" stroke="#000000" stroke-linecap="round" stroke-linejoin="round" stroke-width="2.000000"
	d="
M939.000000,674.000000 
	C939.000000,701.000000 939.000000,728.000000 939.000000,755.000000 
"/>
<path fill="none" opacity="1.000000" stroke="#000000" stroke-linecap="round" stroke-linejoin="round" stroke-width="3.000000"
	d="
M1981.000000,649.000000 
	C1997.271118,668.959778 2008.100952,691.031067 2012.438477,716.926575 
	C2015.455933,734.941223 2010.361328,750.321472 2003.807251,765.919006 
	C2002.680786,768.599792 2000.921021,770.928711 2001.000000,774.000000 
"/>
<path fill="none" opacity="1.000000" stroke="#000000" stroke-linecap="round" stroke-linejoin="round" stroke-width="4.000000"
	d="
M1596.000000,1223.000000 
	C1594.097656,1248.120972 1586.139771,1271.084961 1572.170288,1292.113159 
	C1570.043701,1295.314453 1565.668091,1297.970337 1567.000000,1303.000000 
"/>
<path fill="none" opacity="1.000000" stroke="#000000" stroke-linecap="round" stroke-linejoin="round" stroke-width="3.000000"
	d="
M238.000000,674.000000 
	C238.000000,700.666687 238.000000,727.333313 238.000000,754.000000 
"/>
<path fill="none" opacity="1.000000" stroke="#000000" stroke-linecap="round" stroke-linejoin="round" stroke-width="2.000000"
	d="
M2291.000000,674.000000 
	C2291.000000,697.333313 2291.021484,720.666748 2290.976074,743.999939 
	C2290.969727,747.349060 2291.602539,750.793579 2290.000000,754.000000 
"/>
<path fill="none" opacity="1.000000" stroke="#000000" stroke-linecap="round" stroke-linejoin="round" stroke-width="3.000000"
	d="
M886.000000,674.000000 
	C886.000000,700.666687 886.000000,727.333313 886.000000,754.000000 
"/>
<path fill="none" opacity="1.000000" stroke="#000000" stroke-linecap="round" stroke-linejoin="round" stroke-width="3.000000"
	d="
M1704.000000,782.000000 
	C1718.377197,797.831543 1730.250488,815.657898 1743.890869,832.090576 
	C1751.497192,841.253906 1758.000000,851.333374 1765.000000,861.000000 
"/>
<path fill="none" opacity="1.000000" stroke="#000000" stroke-linecap="round" stroke-linejoin="round" stroke-width="3.000000"
	d="
M1650.000000,755.000000 
	C1664.958252,757.213501 1680.007935,755.365967 1694.999146,756.019409 
	C1705.995972,756.498718 1717.056641,754.795532 1728.000000,757.000000 
"/>
<path fill="none" opacity="1.000000" stroke="#000000" stroke-linecap="round" stroke-linejoin="round" stroke-width="3.000000"
	d="
M1939.000000,1224.000000 
	C1945.043945,1230.338501 1942.126953,1238.828979 1943.469727,1246.097900 
	C1946.902466,1264.681396 1951.923706,1282.576782 1959.000000,1300.000000 
"/>
<path fill="none" opacity="1.000000" stroke="#000000" stroke-linecap="round" stroke-linejoin="round" stroke-width="5.000000"
	d="
M1697.000000,783.000000 
	C1694.595947,783.161316 1692.506836,781.846924 1689.997803,781.906616 
	C1650.975952,782.835266 1612.039062,778.564270 1572.997559,779.928467 
	C1567.682251,780.114258 1562.333374,779.333313 1557.000000,779.000000 
"/>
<path fill="none" opacity="1.000000" stroke="#000000" stroke-linecap="round" stroke-linejoin="round" stroke-width="4.000000"
	d="
M2114.000000,1343.000000 
	C2134.774658,1356.126587 2157.826172,1361.861084 2181.996094,1364.043091 
	C2184.330078,1364.253662 2186.926025,1362.851685 2189.000000,1365.000000 
"/>
<path fill="none" opacity="1.000000" stroke="#000000" stroke-linecap="round" stroke-linejoin="round" stroke-width="3.000000"
	d="
M1809.000000,1062.000000 
	C1808.283325,1073.248535 1811.954346,1083.958984 1813.063843,1094.993530 
	C1815.177368,1116.015625 1817.661743,1137.000610 1820.002808,1157.999634 
	C1820.794678,1165.101440 1821.159424,1172.287109 1824.000000,1179.000000 
"/>
<path fill="none" opacity="1.000000" stroke="#000000" stroke-linecap="round" stroke-linejoin="round" stroke-width="2.000000"
	d="
M939.000000,1040.000000 
	C939.000000,1053.000000 938.968567,1066.000122 939.008118,1079.000000 
	C939.055298,1094.485474 946.344666,1102.379883 962.000000,1104.000000 
"/>
<path fill="none" opacity="1.000000" stroke="#000000" stroke-linecap="round" stroke-linejoin="round" stroke-width="3.000000"
	d="
M1956.000000,1221.000000 
	C1959.288452,1232.445801 1959.010864,1244.444580 1961.763428,1256.056030 
	C1964.853638,1269.091064 1968.264404,1281.881470 1974.000000,1294.000000 
"/>
<path fill="none" opacity="1.000000" stroke="#000000" stroke-linecap="round" stroke-linejoin="round" stroke-width="3.000000"
	d="
M1571.000000,583.000000 
	C1564.117188,576.871521 1561.438599,568.605042 1560.173218,559.974609 
	C1559.601685,556.077515 1560.058594,551.729309 1555.933105,550.177734 
	C1552.146118,548.753418 1549.144775,551.774780 1545.921143,553.879272 
	C1534.807861,561.134583 1527.567749,572.243042 1518.000000,581.000000 
"/>
<path fill="none" opacity="1.000000" stroke="#000000" stroke-linecap="round" stroke-linejoin="round" stroke-width="3.000000"
	d="
M1839.000000,1346.000000 
	C1838.672607,1348.621582 1835.792725,1349.676636 1835.819702,1353.001465 
	C1835.966797,1371.062744 1822.285889,1379.190674 1808.782227,1384.439941 
	C1797.110840,1388.977173 1785.309448,1393.889648 1773.029175,1397.110962 
	C1769.337280,1398.079468 1763.665161,1398.053101 1764.150757,1403.987671 
	C1764.565430,1409.051636 1768.592896,1411.696533 1772.943604,1414.101929 
	C1781.015503,1418.564209 1789.579468,1417.152344 1797.997314,1416.907349 
	C1807.125854,1416.641968 1816.310791,1412.865723 1824.262451,1421.765503 
	C1827.615845,1425.518799 1836.217773,1418.704346 1836.879028,1410.989624 
	C1838.142944,1396.241455 1844.515015,1382.671387 1846.192871,1368.022095 
	C1846.515869,1365.201416 1849.333252,1362.666626 1850.999878,1359.999878 
"/>
<path fill="none" opacity="1.000000" stroke="#000000" stroke-linecap="round" stroke-linejoin="round" stroke-width="3.000000"
	d="
M1979.000000,802.000000 
	C1968.226807,824.325562 1956.688232,846.313416 1949.000000,870.000000 
"/>
<path fill="none" opacity="1.000000" stroke="#000000" stroke-linecap="round" stroke-linejoin="round" stroke-width="3.000000"
	d="
M1938.000000,894.000000 
	C1930.102295,912.444946 1924.249023,931.650757 1916.556763,950.230469 
	C1908.707520,969.188843 1904.851562,989.894409 1900.425903,1010.093323 
	C1899.589966,1013.909058 1898.538696,1018.302490 1897.515137,1021.860535 
	C1893.965210,1034.201416 1898.526123,1045.365479 1899.901245,1057.011719 
	C1900.570068,1062.677734 1901.994263,1068.879517 1901.465942,1073.944336 
	C1899.960083,1088.381470 1907.311890,1096.117920 1917.901855,1103.147827 
	C1921.520142,1105.549805 1923.744995,1109.949463 1927.057129,1112.936646 
	C1932.640259,1117.972046 1930.174438,1122.526978 1925.921021,1125.900391 
	C1901.626099,1145.169434 1877.556641,1164.747559 1855.214600,1186.223267 
	C1846.528809,1194.572021 1836.169067,1194.657959 1826.000000,1197.000000 
"/>
<path fill="none" opacity="1.000000" stroke="#000000" stroke-linecap="round" stroke-linejoin="round" stroke-width="3.000000"
	d="
M1959.000000,1014.000000 
	C1961.663086,1016.761414 1958.662231,1019.174744 1957.804321,1020.902893 
	C1945.062744,1046.570435 1934.078125,1073.036133 1922.108521,1099.049927 
	C1921.313232,1100.778198 1919.886230,1101.581421 1919.000000,1103.000000 
"/>
<path fill="none" opacity="1.000000" stroke="#000000" stroke-linecap="round" stroke-linejoin="round" stroke-width="3.000000"
	d="
M1681.000000,647.000000 
	C1671.341431,687.172058 1661.495117,727.257935 1644.207642,765.094849 
	C1641.647461,770.698303 1636.620605,773.824219 1634.000000,779.000000 
"/>
<path fill="none" opacity="1.000000" stroke="#000000" stroke-linecap="round" stroke-linejoin="round" stroke-width="3.000000"
	d="
M1592.000000,559.000000 
	C1596.824951,565.029663 1603.008179,570.401184 1602.905640,578.998901 
	C1602.874023,581.655762 1604.504028,582.999634 1606.055420,583.904907 
	C1614.212402,588.664795 1613.143188,598.424622 1617.774780,605.154968 
	C1620.243530,608.742432 1610.147217,629.323425 1606.060791,633.066345 
	C1582.696655,654.466736 1553.833618,647.108704 1534.503662,627.496399 
	C1529.920166,633.451538 1524.680176,629.866821 1521.186035,626.788818 
	C1514.322632,620.742798 1507.406982,614.546692 1502.000000,607.000000 
"/>
<path fill="none" opacity="1.000000" stroke="#000000" stroke-linecap="round" stroke-linejoin="round" stroke-width="3.000000"
	d="
M1517.000000,970.000000 
	C1543.902954,980.185669 1569.547852,992.674500 1591.994019,1011.007385 
	C1593.761963,1012.451355 1595.674438,1013.310059 1598.000000,1013.000000 
"/>
<path fill="none" opacity="1.000000" stroke="#000000" stroke-linecap="round" stroke-linejoin="round" stroke-width="3.000000"
	d="
M1809.000000,1056.000000 
	C1809.705078,1064.441162 1818.115112,1066.906860 1822.259888,1072.817749 
	C1832.466553,1087.374023 1844.000000,1101.000000 1855.000000,1115.000000 
"/>
<path fill="none" opacity="1.000000" stroke="#000000" stroke-linecap="round" stroke-linejoin="round" stroke-width="3.000000"
	d="
M1590.000000,674.000000 
	C1590.210815,692.002258 1589.178711,710.027527 1591.000000,728.000000 
"/>
<path fill="none" opacity="1.000000" stroke="#000000" stroke-linecap="round" stroke-linejoin="round" stroke-width="3.000000"
	d="
M1519.000000,776.000000 
	C1507.429077,773.658203 1495.901123,772.025757 1483.977905,773.855957 
	C1476.451050,775.011230 1469.019409,773.853882 1461.936157,770.121033 
	C1455.250854,766.597900 1451.694702,769.699097 1452.000000,778.000000 
"/>
<path fill="none" opacity="1.000000" stroke="#000000" stroke-linecap="round" stroke-linejoin="round" stroke-width="3.000000"
	d="
M1075.000000,1325.000000 
	C1072.401123,1317.161011 1075.369751,1308.858032 1073.154419,1300.178223 
	C1032.723633,1296.887695 992.297668,1301.823242 951.418335,1298.525146 
	C948.797424,1306.788696 950.496948,1314.985840 950.000000,1323.000000 
"/>
<path fill="none" opacity="1.000000" stroke="#000000" stroke-linecap="round" stroke-linejoin="round" stroke-width="3.000000"
	d="
M1719.000000,1401.000000 
	C1702.370850,1403.206543 1685.661865,1401.427246 1669.000000,1402.000000 
"/>
<path fill="none" opacity="1.000000" stroke="#000000" stroke-linecap="round" stroke-linejoin="round" stroke-width="3.000000"
	d="
M1894.000000,1086.000000 
	C1889.771118,1088.502075 1890.023193,1093.004272 1888.959473,1096.989136 
	C1886.734009,1105.327271 1880.070312,1109.553833 1872.000000,1108.000122 
	C1864.695557,1106.593750 1854.146118,1113.014893 1854.168213,1119.999512 
	C1854.242798,1143.508789 1840.627197,1160.240845 1826.856567,1176.881348 
	C1824.688477,1179.501343 1823.008911,1182.359497 1821.127075,1185.087646 
	C1820.084961,1186.598755 1819.319092,1189.756958 1820.158447,1190.881714 
	C1827.726318,1201.022339 1825.555298,1212.708252 1826.152954,1223.991943 
	C1826.193726,1224.761230 1827.047485,1225.873047 1827.000000,1227.000000 
"/>
<path fill="none" opacity="1.000000" stroke="#000000" stroke-linecap="round" stroke-linejoin="round" stroke-width="3.000000"
	d="
M1947.000000,1039.000000 
	C1931.000000,1037.334595 1915.000000,1037.334595 1899.000000,1039.000000 
"/>
<path fill="none" opacity="1.000000" stroke="#000000" stroke-linecap="round" stroke-linejoin="round" stroke-width="3.000000"
	d="
M1893.000000,1174.000000 
	C1894.363525,1184.984375 1888.434692,1194.570679 1887.093262,1205.011963 
	C1886.491577,1209.695801 1881.888184,1213.793579 1885.000000,1219.000000 
"/>
<path fill="none" opacity="1.000000" stroke="#000000" stroke-linecap="round" stroke-linejoin="round" stroke-width="4.000000"
	d="
M1989.000000,1013.000000 
	C2001.659302,1013.615417 2014.383911,1011.745117 2027.000000,1014.000000 
"/>
<path fill="none" opacity="1.000000" stroke="#000000" stroke-linecap="round" stroke-linejoin="round" stroke-width="3.000000"
	d="
M1821.000122,884.000000 
	C1818.333374,900.000000 1815.666748,916.000000 1813.000122,932.000000 
"/>
<path fill="none" opacity="1.000000" stroke="#000000" stroke-linecap="round" stroke-linejoin="round" stroke-width="3.000000"
	d="
M1884.000000,1359.000000 
	C1882.380493,1358.737427 1881.805664,1360.163330 1881.030640,1361.027466 
	C1871.623901,1371.515503 1866.645142,1374.855469 1851.000000,1361.000000 
"/>
<path fill="none" opacity="1.000000" stroke="#000000" stroke-linecap="round" stroke-linejoin="round" stroke-width="3.000000"
	d="
M1586.000000,566.000000 
	C1573.596313,578.066895 1564.644287,593.142944 1553.147095,604.854126 
	C1548.122925,605.490845 1544.961060,602.047302 1541.000000,603.000000 
"/>
<path fill="none" opacity="1.000000" stroke="#000000" stroke-linecap="round" stroke-linejoin="round" stroke-width="3.000000"
	d="
M1598.000000,528.500000 
	C1591.077271,531.296326 1592.264648,537.381836 1591.953613,542.997437 
	C1591.551270,550.263672 1594.603882,558.413635 1585.258667,564.122803 
	C1593.069702,567.930298 1593.033691,577.966309 1602.000000,579.000000 
"/>
<path fill="none" opacity="1.000000" stroke="#000000" stroke-linecap="round" stroke-linejoin="round" stroke-width="4.000000"
	d="
M467.000000,1343.000000 
	C456.333344,1343.000000 445.666656,1343.000000 435.000000,1343.000000 
"/>
<path fill="none" opacity="1.000000" stroke="#000000" stroke-linecap="round" stroke-linejoin="round" stroke-width="3.000000"
	d="
M1829.000000,1374.000000 
	C1829.610718,1384.838623 1824.994507,1394.667725 1822.891357,1404.977783 
	C1822.123413,1408.742554 1822.209473,1413.015625 1819.000000,1416.000000 
"/>
<path fill="none" opacity="1.000000" stroke="#000000" stroke-linecap="round" stroke-linejoin="round" stroke-width="3.000000"
	d="
M1503.000000,742.000000 
	C1503.162842,752.432556 1497.920654,761.784119 1497.000000,772.000000 
"/>
<path fill="none" opacity="1.000000" stroke="#000000" stroke-linecap="round" stroke-linejoin="round" stroke-width="3.000000"
	d="
M1421.000000,754.000000 
	C1427.773560,762.686523 1432.985352,772.659119 1442.000000,779.500000 
"/>
<path fill="none" opacity="1.000000" stroke="#000000" stroke-linecap="round" stroke-linejoin="round" stroke-width="3.000000"
	d="
M1545.000000,952.000000 
	C1542.364380,960.854126 1545.591309,970.142578 1543.000000,979.000000 
"/>
<path fill="none" opacity="1.000000" stroke="#000000" stroke-linecap="round" stroke-linejoin="round" stroke-width="3.000000"
	d="
M1977.000000,1037.000000 
	C1985.166748,1039.749756 1993.830322,1036.287842 2002.000000,1039.000000 
"/>
<path fill="none" opacity="1.000000" stroke="#000000" stroke-linecap="round" stroke-linejoin="round" stroke-width="3.000000"
	d="
M1508.000000,602.000000 
	C1516.000000,610.000000 1524.000000,618.000000 1532.000000,626.000000 
"/>
<path fill="none" opacity="1.000000" stroke="#000000" stroke-linecap="round" stroke-linejoin="round" stroke-width="3.000000"
	d="
M1847.000000,1194.000000 
	C1846.666748,1196.666626 1845.900391,1199.364746 1846.090454,1201.993408 
	C1846.484863,1207.447266 1852.622803,1210.156738 1856.991577,1206.988403 
	C1861.979614,1203.371216 1864.553467,1196.923462 1871.000000,1195.000000 
"/>
<path fill="none" opacity="1.000000" stroke="#000000" stroke-linecap="round" stroke-linejoin="round" stroke-width="3.000000"
	d="
M1619.000000,572.000000 
	C1625.527832,573.869446 1630.305176,578.714539 1636.000000,582.000000 
"/>
<path fill="none" opacity="1.000000" stroke="#000000" stroke-linecap="round" stroke-linejoin="round" stroke-width="3.000000"
	d="
M1528.000000,779.000000 
	C1530.812378,784.000000 1527.113770,789.000000 1528.000000,794.000000 
"/>
<path fill="none" opacity="1.000000" stroke="#000000" stroke-linecap="round" stroke-linejoin="round" stroke-width="3.000000"
	d="
M1539.000000,601.000000 
	C1538.516479,609.395325 1540.430542,618.078308 1536.000000,626.000000 
"/>
<path fill="none" opacity="1.000000" stroke="#000000" stroke-linecap="round" stroke-linejoin="round" stroke-width="2.000000"
	d="
M2062.000000,977.000000 
	C2060.226074,981.666687 2060.727539,986.333313 2062.000000,991.000000 
"/>
<path fill="none" opacity="1.000000" stroke="#000000" stroke-linecap="round" stroke-linejoin="round" stroke-width="3.000000"
	d="
M1828.000000,846.000000 
	C1827.970337,850.688354 1828.287598,855.401489 1827.000000,860.000000 
"/>
<path fill="none" opacity="1.000000" stroke="#000000" stroke-linecap="round" stroke-linejoin="round" stroke-width="3.000000"
	d="
M1556.000000,781.000000 
	C1554.109253,785.161804 1550.973633,788.940613 1552.000000,794.000000 
"/>
<path fill="none" opacity="1.000000" stroke="#000000" stroke-linecap="round" stroke-linejoin="round" stroke-width="3.000000"
	d="
M1517.000000,782.000000 
	C1518.801880,785.877625 1517.692139,789.997864 1518.000000,794.000000 
"/>
<path fill="none" opacity="1.000000" stroke="#000000" stroke-linecap="round" stroke-linejoin="round" stroke-width="3.000000"
	d="
M1853.000000,1139.000000 
	C1857.000000,1140.000000 1861.000000,1141.000000 1865.000000,1142.000000 
"/>
<path fill="none" opacity="1.000000" stroke="#000000" stroke-linecap="round" stroke-linejoin="round" stroke-width="3.000000"
	d="
M1680.000000,1103.000000 
	C1676.248413,1105.156982 1671.751587,1102.843018 1668.000000,1105.000000 
"/>
<path fill="none" opacity="1.000000" stroke="#000000" stroke-linecap="round" stroke-linejoin="round" stroke-width="3.000000"
	d="
M1852.000000,1348.000000 
	C1852.001831,1352.027954 1847.830811,1355.708130 1851.000000,1360.000000 
"/>
<path fill="none" opacity="1.000000" stroke="#000000" stroke-linecap="round" stroke-linejoin="round" stroke-width="3.000000"
	d="
M459.000000,782.000000 
	C455.147217,782.573608 456.016479,785.562622 456.015808,788.000000 
	C455.996399,861.333313 455.994690,934.666687 456.041656,1008.000000 
	C456.042511,1009.333496 456.666931,1010.666626 457.095062,1012.378479 
	C460.190918,1013.757507 463.669617,1012.949890 467.000061,1012.953186 
	C530.333313,1013.016541 593.666809,1012.933350 656.999878,1013.068726 
	C666.994934,1013.090088 677.022095,1012.298950 687.011292,1013.930786 
	C692.825928,1014.880615 696.110596,1012.871948 696.096252,1005.999817 
	C695.941833,932.000122 696.001343,858.000000 695.958801,784.000000 
	C695.958618,783.666504 695.333313,783.333374 693.999939,782.000000 
	C616.669495,782.000000 538.334778,782.000000 460.000000,782.000000 
"/>
</svg>